<svg width="48" height="48" viewBox="0 0 48 48" fill="none" xmlns="http://www.w3.org/2000/svg">
<path d="M44.5 24C44.5 12.6782 35.3218 3.5 24 3.5C12.6782 3.5 3.5 12.6782 3.5 24C3.5 34.2321 10.9966 42.7131 20.7969 44.2509V29.9258H15.5918V24H20.7969V19.4836C20.7969 14.3458 23.8574 11.5078 28.54 11.5078C30.7829 11.5078 33.1289 11.9082 33.1289 11.9082V16.9531H30.5439C27.9973 16.9531 27.2031 18.5333 27.2031 20.1545V24H32.8887L31.9798 29.9258H27.2031V44.2509C37.0034 42.7131 44.5 34.2321 44.5 24Z" fill="black"/>
<path d="M31.9798 29.9258L32.8887 24H27.2031V20.1545C27.2031 18.5333 27.9973 16.9531 30.5439 16.9531H33.1289V11.9082C33.1289 11.9082 30.7829 11.5078 28.54 11.5078C23.8574 11.5078 20.7969 14.3458 20.7969 19.4836V24H15.5918V29.9258H20.7969V44.2509C22.9194 44.583 25.0806 44.583 27.2031 44.2509V29.9258H31.9798Z" fill="white"/>
</svg>
