<svg width="48" height="48" viewBox="0 0 48 48" fill="none" xmlns="http://www.w3.org/2000/svg">
<path d="M34.447 10.093C33.9605 10.093 33.4848 10.2373 33.0803 10.5076C32.6758 10.7779 32.3604 11.1621 32.1743 11.6116C31.9881 12.0611 31.9393 12.5557 32.0343 13.0329C32.1292 13.5101 32.3635 13.9484 32.7075 14.2925C33.0516 14.6365 33.4899 14.8708 33.9671 14.9657C34.4443 15.0607 34.9389 15.0119 35.3884 14.8257C35.8379 14.6396 36.2221 14.3242 36.4924 13.9197C36.7627 13.5152 36.907 13.0395 36.907 12.553C36.907 11.9006 36.6478 11.2749 36.1865 10.8135C35.7251 10.3522 35.0994 10.093 34.447 10.093ZM43.877 15.054C43.8371 13.3531 43.5186 11.6703 42.934 10.0725C42.4127 8.70542 41.6015 7.46752 40.556 6.444C39.5409 5.39322 38.3001 4.58706 36.9275 4.0865C35.3339 3.48413 33.6492 3.15828 31.946 3.123C29.773 3 29.076 3 23.5 3C17.924 3 17.227 3 15.054 3.123C13.3508 3.15828 11.6661 3.48413 10.0725 4.0865C8.70244 4.59213 7.46271 5.3976 6.444 6.444C5.39322 7.45911 4.58706 8.6999 4.0865 10.0725C3.48413 11.6661 3.15828 13.3508 3.123 15.054C3 17.227 3 17.924 3 23.5C3 29.076 3 29.773 3.123 31.946C3.15828 33.6492 3.48413 35.3339 4.0865 36.9275C4.58706 38.3001 5.39322 39.5409 6.444 40.556C7.46271 41.6024 8.70244 42.4079 10.0725 42.9135C11.6661 43.5159 13.3508 43.8417 15.054 43.877C17.227 44 17.924 44 23.5 44C29.076 44 29.773 44 31.946 43.877C33.6492 43.8417 35.3339 43.5159 36.9275 42.9135C38.3001 42.4129 39.5409 41.6068 40.556 40.556C41.6061 39.5363 42.4181 38.2973 42.934 36.9275C43.5186 35.3297 43.8371 33.6469 43.877 31.946C43.877 29.773 44 29.076 44 23.5C44 17.924 44 17.227 43.877 15.054ZM40.187 31.7C40.1721 33.0013 39.9364 34.2906 39.49 35.513C39.1627 36.4051 38.637 37.2113 37.9525 37.8705C37.2876 38.548 36.4831 39.0727 35.595 39.408C34.3726 39.8544 33.0833 40.0901 31.782 40.105C29.732 40.2075 28.9735 40.228 23.582 40.228C18.1905 40.228 17.432 40.228 15.382 40.105C14.0308 40.1303 12.6854 39.9222 11.405 39.49C10.5559 39.1376 9.78828 38.6142 9.15 37.9525C8.46958 37.2939 7.95043 36.4871 7.633 35.595C7.13251 34.3551 6.85491 33.0365 6.813 31.7C6.813 29.65 6.69 28.8915 6.69 23.5C6.69 18.1085 6.69 17.35 6.813 15.3C6.82219 13.9697 7.06505 12.6513 7.5305 11.405C7.8914 10.5397 8.44534 9.7684 9.15 9.15C9.77282 8.44514 10.5425 7.88535 11.405 7.51C12.6546 7.05909 13.9716 6.82341 15.3 6.813C17.35 6.813 18.1085 6.69 23.5 6.69C28.8915 6.69 29.65 6.69 31.7 6.813C33.0013 6.82793 34.2906 7.06361 35.513 7.51C36.4446 7.85574 37.2807 8.41784 37.9525 9.15C38.6243 9.77972 39.1492 10.5496 39.49 11.405C39.9456 12.6533 40.1814 13.9711 40.187 15.3C40.2895 17.35 40.31 18.1085 40.31 23.5C40.31 28.8915 40.2895 29.65 40.187 31.7ZM23.5 12.9835C21.4209 12.9876 19.3897 13.6078 17.6629 14.7658C15.9362 15.9238 14.5915 17.5677 13.7986 19.4897C13.0058 21.4117 12.8005 23.5256 13.2086 25.5642C13.6167 27.6029 14.6199 29.4748 16.0915 30.9435C17.563 32.4122 19.4369 33.4118 21.4764 33.8159C23.5158 34.22 25.6293 34.0106 27.5497 33.214C29.4702 32.4174 31.1114 31.0695 32.2661 29.3405C33.4207 27.6115 34.037 25.5791 34.037 23.5C34.0397 22.1165 33.7689 20.746 33.24 19.4676C32.7112 18.1891 31.9348 17.0278 30.9556 16.0504C29.9763 15.073 28.8135 14.2989 27.534 13.7726C26.2545 13.2463 24.8835 12.9781 23.5 12.9835ZM23.5 30.3265C22.1498 30.3265 20.83 29.9261 19.7074 29.176C18.5848 28.4259 17.7098 27.3598 17.1931 26.1124C16.6765 24.865 16.5413 23.4924 16.8047 22.1682C17.0681 20.844 17.7182 19.6276 18.6729 18.6729C19.6276 17.7182 20.844 17.0681 22.1682 16.8047C23.4924 16.5413 24.865 16.6765 26.1124 17.1931C27.3598 17.7098 28.4259 18.5848 29.176 19.7074C29.9261 20.83 30.3265 22.1498 30.3265 23.5C30.3265 24.3965 30.1499 25.2842 29.8069 26.1124C29.4638 26.9406 28.961 27.6932 28.3271 28.3271C27.6932 28.961 26.9406 29.4638 26.1124 29.8069C25.2842 30.1499 24.3965 30.3265 23.5 30.3265Z" fill="black"/>
</svg>
