<svg width="48" height="48" viewBox="0 0 48 48" fill="none" xmlns="http://www.w3.org/2000/svg">
<path d="M26.0424 21.6344H26.0738V21.5851L26.0424 21.6344ZM26.0424 21.6344H26.0738V21.5851L26.0424 21.6344ZM26.0424 21.6344H26.0738V21.5851L26.0424 21.6344ZM26.0424 21.6344H26.0738V21.5851L26.0424 21.6344ZM26.0424 21.6344H26.0738V21.5851L26.0424 21.6344ZM26.0424 21.6344H26.0738V21.5851L26.0424 21.6344ZM26.0424 21.6344H26.0738V21.5851L26.0424 21.6344ZM26.0424 21.6344H26.0738V21.5851L26.0424 21.6344ZM26.0424 21.6344H26.0738V21.5851L26.0424 21.6344ZM26.0424 21.6344H26.0738V21.5851L26.0424 21.6344ZM26.0424 21.6344H26.0738V21.5851L26.0424 21.6344ZM26.0424 21.6344H26.0738V21.5851L26.0424 21.6344ZM26.0424 21.6344H26.0738V21.5851L26.0424 21.6344ZM26.0424 21.6344H26.0738V21.5851L26.0424 21.6344ZM26.0424 21.6344H26.0738V21.5851L26.0424 21.6344ZM26.0424 21.6344H26.0738V21.5851L26.0424 21.6344ZM24 3.5C19.9455 3.5 15.982 4.7023 12.6108 6.95487C9.23961 9.20744 6.61207 12.4091 5.06048 16.155C3.50888 19.9009 3.10291 24.0227 3.89391 27.9993C4.68491 31.976 6.63734 35.6287 9.50432 38.4957C12.3713 41.3627 16.024 43.3151 20.0007 44.1061C23.9773 44.8971 28.0991 44.4911 31.845 42.9395C35.5909 41.3879 38.7926 38.7604 41.0451 35.3892C43.2977 32.018 44.5 28.0545 44.5 24C44.4941 18.5649 42.3323 13.3541 38.4891 9.51087C34.6459 5.66766 29.4351 3.50594 24 3.5ZM18.8739 33.2288C18.8727 33.3197 18.8358 33.4065 18.7711 33.4703C18.7064 33.5342 18.6191 33.57 18.5283 33.57H14.5782C14.4877 33.57 14.4009 33.534 14.337 33.47C14.273 33.4061 14.237 33.3193 14.237 33.2288V19.9557C14.2364 19.9105 14.2448 19.8656 14.2617 19.8237C14.2786 19.7818 14.3036 19.7437 14.3354 19.7115C14.3671 19.6794 14.4049 19.6538 14.4466 19.6364C14.4883 19.619 14.533 19.61 14.5782 19.61H18.5283C18.5736 19.61 18.6186 19.619 18.6605 19.6363C18.7025 19.6537 18.7406 19.6792 18.7727 19.7113C18.8047 19.7434 18.8302 19.7815 18.8476 19.8234C18.8649 19.8653 18.8739 19.9103 18.8739 19.9557V33.2288ZM16.4141 17.837C15.9231 17.837 15.4432 17.6914 15.035 17.4186C14.6268 17.1459 14.3086 16.7582 14.1208 16.3046C13.9329 15.8511 13.8837 15.352 13.9795 14.8705C14.0753 14.3889 14.3117 13.9466 14.6588 13.5995C15.006 13.2523 15.4483 13.0159 15.9298 12.9201C16.4113 12.8244 16.9104 12.8735 17.364 13.0614C17.8176 13.2493 18.2052 13.5674 18.478 13.9756C18.7507 14.3838 18.8963 14.8638 18.8963 15.3547C18.8969 15.6809 18.8331 16.0039 18.7086 16.3053C18.584 16.6068 18.4012 16.8806 18.1706 17.1113C17.94 17.3419 17.6661 17.5247 17.3647 17.6492C17.0633 17.7738 16.7402 17.8376 16.4141 17.837ZM35.5899 33.2288C35.5887 33.3197 35.5518 33.4065 35.4871 33.4703C35.4224 33.5342 35.3351 33.57 35.2443 33.57H31.2942C31.2494 33.57 31.205 33.5611 31.1636 33.544C31.1222 33.5268 31.0846 33.5017 31.053 33.47C31.0213 33.4384 30.9961 33.4007 30.979 33.3594C30.9619 33.318 30.953 33.2736 30.953 33.2288V26.0962C30.953 24.2199 30.2842 22.9541 28.6054 22.9541C28.0823 22.957 27.5729 23.1217 27.147 23.4254C26.7211 23.7292 26.3995 24.1572 26.2264 24.6509C26.1081 25.0157 26.0564 25.3989 26.0738 25.782V33.2288C26.0738 33.3205 26.0374 33.4084 25.9726 33.4732C25.9077 33.538 25.8198 33.5744 25.7282 33.5744H21.7781C21.7329 33.5744 21.6882 33.5655 21.6465 33.548C21.6048 33.5306 21.567 33.5051 21.5353 33.4729C21.5035 33.4408 21.4785 33.4026 21.4616 33.3607C21.4447 33.3188 21.4364 33.274 21.4369 33.2288C21.4369 31.3346 21.4863 22.1372 21.4369 19.9736C21.4364 19.9284 21.4447 19.8836 21.4616 19.8417C21.4785 19.7998 21.5035 19.7616 21.5353 19.7295C21.567 19.6973 21.6048 19.6718 21.6465 19.6544C21.6882 19.6369 21.7329 19.628 21.7781 19.628H25.7192C25.7647 19.6274 25.81 19.6359 25.8522 19.6531C25.8944 19.6702 25.9327 19.6957 25.9649 19.7279C25.9971 19.7601 26.0226 19.7984 26.0397 19.8406C26.0569 19.8828 26.0654 19.9281 26.0648 19.9736V21.603C26.4847 20.8742 27.0961 20.2742 27.8329 19.8683C28.5696 19.4623 29.4034 19.2659 30.2438 19.3003C33.2917 19.3003 35.5809 21.2933 35.5809 25.5845L35.5899 33.2288ZM26.0738 21.6479V21.5985L26.0424 21.6479H26.0738ZM26.0424 21.6479H26.0738V21.5985L26.0424 21.6479ZM26.0424 21.6479H26.0738V21.5985L26.0424 21.6479ZM26.0424 21.6479H26.0738V21.5985L26.0424 21.6479ZM26.0424 21.6479H26.0738V21.5985L26.0424 21.6479ZM26.0424 21.6479H26.0738V21.5985L26.0424 21.6479ZM26.0424 21.6479H26.0738V21.5985L26.0424 21.6479ZM26.0424 21.6479H26.0738V21.5985L26.0424 21.6479ZM26.0424 21.6479H26.0738V21.5985L26.0424 21.6479ZM26.0424 21.6479H26.0738V21.5985L26.0424 21.6479ZM26.0424 21.6479H26.0738V21.5985L26.0424 21.6479ZM26.0424 21.6479H26.0738V21.5985L26.0424 21.6479ZM26.0424 21.6479H26.0738V21.5985L26.0424 21.6479ZM26.0424 21.6479H26.0738V21.5985L26.0424 21.6479ZM26.0424 21.6479H26.0738V21.5985L26.0424 21.6479Z" fill="black"/>
</svg>
