<svg width="48" height="48" viewBox="0 0 48 48" fill="none" xmlns="http://www.w3.org/2000/svg">
<path fill-rule="evenodd" clip-rule="evenodd" d="M19.7668 29.3556L19.765 17.7543L30.8436 23.5746L19.7668 29.3556ZM44.09 15.7436C44.09 15.7436 43.6885 12.8992 42.4603 11.6453C40.9005 10.0002 39.1538 9.99252 38.3526 9.89686C32.6151 9.47917 24.0094 9.47916 24.0094 9.47916H23.9906C23.9906 9.47916 15.3849 9.47915 9.64744 9.89769C8.84538 9.9925 7.09945 10.0002 5.53889 11.6453C4.30974 12.8984 3.91 15.7436 3.91 15.7436C3.91 15.7436 3.5 19.086 3.5 22.4266V25.5597C3.5 28.9012 3.91 32.2418 3.91 32.2418C3.91 32.2418 4.30974 35.0871 5.53889 36.3401C7.09945 37.9852 9.14774 37.934 10.06 38.1057C13.34 38.4226 24 38.5208 24 38.5208C24 38.5208 32.6151 38.508 38.3526 38.0895C39.1538 37.9929 40.9005 37.9852 42.4603 36.3401C43.6894 35.0871 44.09 32.2418 44.09 32.2418C44.09 32.2418 44.5 28.902 44.5 25.5597V22.4266C44.5 19.086 44.09 15.7436 44.09 15.7436Z" fill="black"/>
</svg>
